<svg xmlns="http://www.w3.org/2000/svg" xmlns:xlink="http://www.w3.org/1999/xlink" width="500" zoomAndPan="magnify" viewBox="0 0 375 374.999991" height="500" preserveAspectRatio="xMidYMid meet" version="1.0"><defs><g/></defs><g fill="#000000" fill-opacity="1"><g transform="translate(117.898883, 205.124987)"><g><path d="M 3.703125 0 L 3.703125 -35.5 L 19.40625 -35.5 C 21.03125 -35.5 22.535156 -35.15625 23.921875 -34.46875 C 25.304688 -33.789062 26.5 -32.890625 27.5 -31.765625 C 28.5 -30.648438 29.28125 -29.382812 29.84375 -27.96875 C 30.414062 -26.550781 30.703125 -25.128906 30.703125 -23.703125 C 30.703125 -21.398438 30.125 -19.304688 28.96875 -17.421875 C 27.820312 -15.535156 26.265625 -14.175781 24.296875 -13.34375 L 32.40625 0 L 24.65625 0 L 17.40625 -11.90625 L 10.59375 -11.90625 L 10.59375 0 Z M 10.59375 -17.953125 L 19.25 -17.953125 C 19.882812 -17.953125 20.472656 -18.097656 21.015625 -18.390625 C 21.566406 -18.691406 22.039062 -19.101562 22.4375 -19.625 C 22.84375 -20.144531 23.160156 -20.753906 23.390625 -21.453125 C 23.628906 -22.148438 23.75 -22.898438 23.75 -23.703125 C 23.75 -24.535156 23.613281 -25.300781 23.34375 -26 C 23.082031 -26.695312 22.722656 -27.300781 22.265625 -27.8125 C 21.816406 -28.332031 21.300781 -28.734375 20.71875 -29.015625 C 20.132812 -29.304688 19.546875 -29.453125 18.953125 -29.453125 L 10.59375 -29.453125 Z M 10.59375 -17.953125 "/></g></g></g><g fill="#000000" fill-opacity="1"><g transform="translate(153.69374, 205.124987)"><g><path d="M 15.203125 0.5 C 13.097656 0.5 11.195312 0.140625 9.5 -0.578125 C 7.800781 -1.296875 6.347656 -2.269531 5.140625 -3.5 C 3.941406 -4.726562 3.019531 -6.160156 2.375 -7.796875 C 1.726562 -9.429688 1.40625 -11.148438 1.40625 -12.953125 C 1.40625 -14.816406 1.71875 -16.570312 2.34375 -18.21875 C 2.976562 -19.875 3.894531 -21.328125 5.09375 -22.578125 C 6.300781 -23.828125 7.757812 -24.816406 9.46875 -25.546875 C 11.1875 -26.285156 13.113281 -26.65625 15.25 -26.65625 C 17.382812 -26.65625 19.289062 -26.285156 20.96875 -25.546875 C 22.65625 -24.816406 24.085938 -23.832031 25.265625 -22.59375 C 26.453125 -21.363281 27.351562 -19.929688 27.96875 -18.296875 C 28.59375 -16.660156 28.90625 -14.960938 28.90625 -13.203125 C 28.90625 -12.765625 28.894531 -12.34375 28.875 -11.9375 C 28.851562 -11.539062 28.8125 -11.210938 28.75 -10.953125 L 8.5 -10.953125 C 8.601562 -9.921875 8.851562 -9.003906 9.25 -8.203125 C 9.644531 -7.398438 10.160156 -6.710938 10.796875 -6.140625 C 11.429688 -5.578125 12.148438 -5.144531 12.953125 -4.84375 C 13.753906 -4.550781 14.585938 -4.40625 15.453125 -4.40625 C 16.785156 -4.40625 18.039062 -4.726562 19.21875 -5.375 C 20.40625 -6.019531 21.21875 -6.878906 21.65625 -7.953125 L 27.40625 -6.34375 C 26.4375 -4.34375 24.890625 -2.703125 22.765625 -1.421875 C 20.648438 -0.140625 18.128906 0.5 15.203125 0.5 Z M 22 -15.296875 C 21.832031 -17.265625 21.109375 -18.835938 19.828125 -20.015625 C 18.546875 -21.203125 16.988281 -21.796875 15.15625 -21.796875 C 14.25 -21.796875 13.40625 -21.632812 12.625 -21.3125 C 11.84375 -21 11.148438 -20.5625 10.546875 -20 C 9.953125 -19.4375 9.460938 -18.753906 9.078125 -17.953125 C 8.691406 -17.148438 8.46875 -16.265625 8.40625 -15.296875 Z M 22 -15.296875 "/></g></g></g><g fill="#000000" fill-opacity="1"><g transform="translate(186.189105, 205.124987)"><g><path d="M 13.296875 0.15625 C 11.535156 0.15625 9.9375 -0.191406 8.5 -0.890625 C 7.0625 -1.597656 5.816406 -2.554688 4.765625 -3.765625 C 3.722656 -4.984375 2.914062 -6.394531 2.34375 -8 C 1.78125 -9.601562 1.5 -11.300781 1.5 -13.09375 C 1.5 -15 1.796875 -16.765625 2.390625 -18.390625 C 2.992188 -20.023438 3.828125 -21.457031 4.890625 -22.6875 C 5.960938 -23.925781 7.25 -24.894531 8.75 -25.59375 C 10.25 -26.300781 11.898438 -26.65625 13.703125 -26.65625 C 15.734375 -26.65625 17.515625 -26.195312 19.046875 -25.28125 C 20.578125 -24.363281 21.84375 -23.132812 22.84375 -21.59375 L 22.84375 -26.203125 L 28.703125 -26.203125 L 28.703125 -1.25 C 28.703125 0.6875 28.332031 2.421875 27.59375 3.953125 C 26.863281 5.484375 25.859375 6.78125 24.578125 7.84375 C 23.296875 8.914062 21.757812 9.734375 19.96875 10.296875 C 18.1875 10.867188 16.25 11.15625 14.15625 11.15625 C 11.28125 11.15625 8.867188 10.675781 6.921875 9.71875 C 4.972656 8.769531 3.300781 7.429688 1.90625 5.703125 L 5.546875 2.15625 C 6.546875 3.382812 7.800781 4.347656 9.3125 5.046875 C 10.832031 5.742188 12.445312 6.09375 14.15625 6.09375 C 15.1875 6.09375 16.175781 5.953125 17.125 5.671875 C 18.070312 5.390625 18.910156 4.945312 19.640625 4.34375 C 20.378906 3.75 20.957031 2.984375 21.375 2.046875 C 21.789062 1.117188 22 0.0195312 22 -1.25 L 22 -4.546875 C 21.132812 -3.046875 19.914062 -1.882812 18.34375 -1.0625 C 16.78125 -0.25 15.097656 0.15625 13.296875 0.15625 Z M 15.546875 -5.203125 C 16.285156 -5.203125 16.988281 -5.316406 17.65625 -5.546875 C 18.320312 -5.785156 18.9375 -6.101562 19.5 -6.5 C 20.0625 -6.894531 20.5625 -7.359375 21 -7.890625 C 21.4375 -8.429688 21.769531 -9 22 -9.59375 L 22 -15.84375 C 21.394531 -17.382812 20.453125 -18.617188 19.171875 -19.546875 C 17.890625 -20.484375 16.550781 -20.953125 15.15625 -20.953125 C 14.113281 -20.953125 13.175781 -20.722656 12.34375 -20.265625 C 11.507812 -19.816406 10.789062 -19.21875 10.1875 -18.46875 C 9.59375 -17.71875 9.132812 -16.859375 8.8125 -15.890625 C 8.5 -14.929688 8.34375 -13.9375 8.34375 -12.90625 C 8.34375 -11.832031 8.523438 -10.828125 8.890625 -9.890625 C 9.265625 -8.960938 9.773438 -8.148438 10.421875 -7.453125 C 11.078125 -6.753906 11.835938 -6.203125 12.703125 -5.796875 C 13.566406 -5.398438 14.515625 -5.203125 15.546875 -5.203125 Z M 15.546875 -5.203125 "/></g></g></g><g fill="#000000" fill-opacity="1"><g transform="translate(220.434208, 205.124987)"><g><path d="M 11.046875 0.5 C 8.347656 0.5 6.296875 -0.363281 4.890625 -2.09375 C 3.492188 -3.832031 2.796875 -6.398438 2.796875 -9.796875 L 2.796875 -26.203125 L 9.5 -26.203125 L 9.5 -11.25 C 9.5 -7.21875 10.945312 -5.203125 13.84375 -5.203125 C 15.144531 -5.203125 16.40625 -5.59375 17.625 -6.375 C 18.84375 -7.15625 19.832031 -8.347656 20.59375 -9.953125 L 20.59375 -26.203125 L 27.296875 -26.203125 L 27.296875 -7.703125 C 27.296875 -7.003906 27.421875 -6.503906 27.671875 -6.203125 C 27.921875 -5.898438 28.332031 -5.734375 28.90625 -5.703125 L 28.90625 0 C 28.238281 0.132812 27.675781 0.21875 27.21875 0.25 C 26.769531 0.28125 26.363281 0.296875 26 0.296875 C 24.800781 0.296875 23.828125 0.0234375 23.078125 -0.515625 C 22.328125 -1.066406 21.882812 -1.828125 21.75 -2.796875 L 21.59375 -4.90625 C 20.425781 -3.101562 18.925781 -1.75 17.09375 -0.84375 C 15.257812 0.0507812 13.242188 0.5 11.046875 0.5 Z M 11.046875 0.5 "/></g></g></g><g fill="#000000" fill-opacity="1"><g transform="translate(253.879427, 205.124987)"><g><path d="M 3 -36.5 L 9.703125 -36.5 L 9.703125 -8.40625 C 9.703125 -7.4375 9.929688 -6.679688 10.390625 -6.140625 C 10.859375 -5.609375 11.53125 -5.34375 12.40625 -5.34375 C 12.800781 -5.34375 13.238281 -5.410156 13.71875 -5.546875 C 14.207031 -5.679688 14.664062 -5.847656 15.09375 -6.046875 L 16 -0.953125 C 15.101562 -0.515625 14.050781 -0.179688 12.84375 0.046875 C 11.644531 0.285156 10.5625 0.40625 9.59375 0.40625 C 7.5 0.40625 5.875 -0.148438 4.71875 -1.265625 C 3.570312 -2.390625 3 -3.984375 3 -6.046875 Z M 3 -36.5 "/></g></g></g><g fill="#000000" fill-opacity="1"><g transform="translate(272.276971, 205.124987)"><g><path d="M 15.15625 0.5 C 13.019531 0.5 11.097656 0.132812 9.390625 -0.59375 C 7.691406 -1.332031 6.25 -2.328125 5.0625 -3.578125 C 3.882812 -4.828125 2.976562 -6.265625 2.34375 -7.890625 C 1.71875 -9.523438 1.40625 -11.242188 1.40625 -13.046875 C 1.40625 -14.878906 1.71875 -16.613281 2.34375 -18.25 C 2.976562 -19.882812 3.882812 -21.328125 5.0625 -22.578125 C 6.25 -23.828125 7.691406 -24.816406 9.390625 -25.546875 C 11.097656 -26.285156 13.019531 -26.65625 15.15625 -26.65625 C 17.28125 -26.65625 19.1875 -26.285156 20.875 -25.546875 C 22.5625 -24.816406 23.992188 -23.828125 25.171875 -22.578125 C 26.359375 -21.328125 27.265625 -19.882812 27.890625 -18.25 C 28.523438 -16.613281 28.84375 -14.878906 28.84375 -13.046875 C 28.84375 -11.242188 28.523438 -9.523438 27.890625 -7.890625 C 27.265625 -6.265625 26.367188 -4.828125 25.203125 -3.578125 C 24.035156 -2.328125 22.597656 -1.332031 20.890625 -0.59375 C 19.191406 0.132812 17.28125 0.5 15.15625 0.5 Z M 8.296875 -13.046875 C 8.296875 -11.878906 8.46875 -10.820312 8.8125 -9.875 C 9.164062 -8.925781 9.648438 -8.097656 10.265625 -7.390625 C 10.890625 -6.691406 11.617188 -6.148438 12.453125 -5.765625 C 13.285156 -5.390625 14.1875 -5.203125 15.15625 -5.203125 C 16.113281 -5.203125 17.007812 -5.390625 17.84375 -5.765625 C 18.675781 -6.148438 19.398438 -6.691406 20.015625 -7.390625 C 20.640625 -8.097656 21.125 -8.929688 21.46875 -9.890625 C 21.820312 -10.859375 22 -11.925781 22 -13.09375 C 22 -14.226562 21.820312 -15.28125 21.46875 -16.25 C 21.125 -17.21875 20.640625 -18.050781 20.015625 -18.75 C 19.398438 -19.445312 18.675781 -19.988281 17.84375 -20.375 C 17.007812 -20.757812 16.113281 -20.953125 15.15625 -20.953125 C 14.1875 -20.953125 13.285156 -20.75 12.453125 -20.34375 C 11.617188 -19.945312 10.890625 -19.398438 10.265625 -18.703125 C 9.648438 -18.003906 9.164062 -17.171875 8.8125 -16.203125 C 8.46875 -15.234375 8.296875 -14.179688 8.296875 -13.046875 Z M 8.296875 -13.046875 "/></g></g></g><path fill="#d414aa" d="M 72.984375 194.285156 C 76.496094 190.777344 76.496094 185.089844 72.984375 181.578125 L 69.707031 178.300781 L 55.742188 192.285156 C 52.230469 195.792969 52.230469 201.480469 55.742188 204.992188 L 59.019531 208.269531 Z M 90.855469 180.511719 C 87.347656 184.019531 87.347656 189.710938 90.855469 193.21875 L 94.132812 196.496094 L 108.101562 182.515625 C 111.609375 179.003906 111.609375 173.316406 108.101562 169.808594 L 104.820312 166.527344 Z M 89.742188 196.332031 C 86.234375 192.824219 80.546875 192.824219 77.039062 196.332031 L 73.757812 199.613281 L 87.742188 213.578125 C 91.25 217.085938 96.941406 217.085938 100.449219 213.578125 L 103.726562 210.300781 Z M 61.988281 164.5 L 65.265625 161.21875 C 68.773438 157.710938 74.460938 157.710938 77.972656 161.21875 L 91.957031 175.1875 L 88.675781 178.464844 C 85.167969 181.972656 79.480469 181.972656 75.972656 178.464844 L 61.988281 164.5 " fill-opacity="1" fill-rule="nonzero"/><path fill="#004aad" d="M 57.925781 166.527344 L 56.390625 168.0625 C 51.917969 172.535156 51.917969 179.785156 56.390625 184.257812 L 69.707031 197.574219 L 71.242188 196.042969 C 77.707031 190.597656 75.6875 184.292969 72.980469 181.585938 Z M 105.914062 208.269531 L 107.449219 206.734375 C 111.921875 202.261719 111.921875 195.011719 107.449219 190.539062 L 94.132812 177.222656 L 92.597656 178.757812 C 86.132812 184.199219 88.152344 190.507812 90.859375 193.214844 Z M 61.988281 211.394531 L 63.519531 212.929688 C 67.992188 217.402344 75.242188 217.402344 79.714844 212.929688 L 93.03125 199.613281 L 91.5 198.078125 C 86.054688 191.609375 79.75 193.632812 77.042969 196.339844 Z M 88.671875 178.460938 C 85.964844 181.167969 79.660156 183.1875 74.214844 176.71875 L 72.683594 175.1875 L 86 161.871094 C 90.46875 157.398438 97.722656 157.398438 102.195312 161.871094 L 103.726562 163.402344 L 88.671875 178.460938 " fill-opacity="1" fill-rule="nonzero"/></svg>